<svg xmlns="http://www.w3.org/2000/svg" width="29" height="37" viewBox="0 0 29 37">
  <defs>
    <style>
      .cls-1 {
        fill: #b3b2b1;
        fill-rule: evenodd;
        opacity: 0.5;
      }
    </style>
  </defs>
  <path id="ecommerce_icon" data-name="ecommerce icon" class="cls-1" d="M989,705v-3h7v3h-7Zm4,0h3v22h-3V705Zm2,5v-3h23v3H995Zm0,13v-3h18v3H995Zm20-14h3l-4,14h-3Zm-22,21v-3h21v3H993Zm3,3a3,3,0,1,1-3,3A3,3,0,0,1,996,733Zm14,0a3,3,0,1,1-3,3A3,3,0,0,1,1010,733Z" transform="translate(-989 -702)"/>
</svg>
