<svg xmlns="http://www.w3.org/2000/svg" width="20" height="19" viewBox="0 0 20 19">
  <defs>
    <style>
      .cls-1 {
        fill: #b3b2b1;
        fill-rule: evenodd;
        opacity: 0.5;
      }
    </style>
  </defs>
  <path class="cls-1" d="M97,4603a1,1,0,1,1-1,1A1,1,0,0,1,97,4603Zm3-3H98c0-.04,0-4,0-4a2.033,2.033,0,0,0-2-2H88a2.033,2.033,0,0,0-2,2s0,3.96,0,4H84a2.032,2.032,0,0,0-2,2v6a2.032,2.032,0,0,0,2,2h2v1a2.033,2.033,0,0,0,2,2h8a2.033,2.033,0,0,0,2-2v-1h2a2.033,2.033,0,0,0,2-2v-6A2.033,2.033,0,0,0,100,4600Zm-12-4h8v4H88v-4Zm8,15H88v-3h8v3Zm4-3H98v-2H86v2H84v-6h16v6Z" transform="translate(-82 -4594)"/>
</svg>
