<svg xmlns="http://www.w3.org/2000/svg" width="16.75" height="16.9" viewBox="0 0 16.75 16.9">
  <defs>
    <style>
      .cls-1 {
        fill: #b3b2b1;
        fill-rule: evenodd;
        opacity: 0.5;
      }
    </style>
  </defs>
  <path id="linkedin" class="cls-1" d="M1095.53,4545.6v-11.41h-3.58v11.41h3.58Zm-1.79-12.96a2,2,0,1,0-.02,0h0.02Zm3.78,12.96h3.59v-6.37a2.569,2.569,0,0,1,.12-0.92,1.971,1.971,0,0,1,1.84-1.39c1.3,0,1.82,1.04,1.82,2.58v6.1h3.59v-6.54c0-3.5-1.77-5.13-4.13-5.13a3.545,3.545,0,0,0-3.26,1.92h0.02v-1.66h-3.59c0.05,1.07,0,11.41,0,11.41h0Z" transform="translate(-1091.72 -4528.69)"/>
</svg>
