<svg xmlns="http://www.w3.org/2000/svg" width="18" height="17.97" viewBox="0 0 18 17.97">
  <defs>
    <style>
      .cls-1 {
        fill: #b3b2b1;
        fill-rule: evenodd;
        opacity: 0.5;
      }
    </style>
  </defs>
  <path id="phone" class="cls-1" d="M84.31,4577.38c0.74,0.6,4.3,2.16,10.746-4.3s4.983-10.1,4.3-10.76l-4.3,4.3c0.554,0.56.043,0.77-1.075,2.16a27.038,27.038,0,0,1-3.28,3.24c-0.785.64-1.512,1.64-2.093,1.06ZM97.2,4560.17a0.863,0.863,0,0,0-1.075,0c-0.005,0-3.223,3.22-3.224,3.23a0.877,0.877,0,0,0,0,1.07l1.075,1.08,4.3-4.31S97.208,4560.17,97.2,4560.17Zm-10.746,10.76a0.864,0.864,0,0,0-1.075,0s-3.223,3.23-3.224,3.23a0.872,0.872,0,0,0,0,1.07l1.075,1.08,4.3-4.31Z" transform="translate(-81.969 -4560)"/>
</svg>
