<svg xmlns="http://www.w3.org/2000/svg" width="18.03" height="14.31" viewBox="0 0 18.03 14.31">
  <defs>
    <style>
      .cls-1 {
        fill: #b3b2b1;
        fill-rule: evenodd;
        opacity: 0.5;
      }
    </style>
  </defs>
  <path id="twitter" class="cls-1" d="M1110.4,4463.69a7.459,7.459,0,0,1-2.12.57,3.61,3.61,0,0,0,1.62-2,7.259,7.259,0,0,1-2.34.88,3.759,3.759,0,0,0-2.7-1.14,3.628,3.628,0,0,0-3.61,4.43,10.555,10.555,0,0,1-7.62-3.77,3.5,3.5,0,0,0-.5,1.82,3.586,3.586,0,0,0,1.64,3,3.778,3.778,0,0,1-1.67-.45v0.04a3.629,3.629,0,0,0,2.97,3.54,3.514,3.514,0,0,1-.98.13,3.852,3.852,0,0,1-.69-0.06,3.684,3.684,0,0,0,3.45,2.5,7.535,7.535,0,0,1-4.59,1.55,8.686,8.686,0,0,1-.89-0.05,10.725,10.725,0,0,0,5.67,1.62,10.321,10.321,0,0,0,10.53-10.27c0-.16-0.01-0.31-0.01-0.47A7.268,7.268,0,0,0,1110.4,4463.69Z" transform="translate(-1092.38 -4462)"/>
</svg>
