<svg id="icon" xmlns="http://www.w3.org/2000/svg" width="110.31" height="64" viewBox="0 0 110.31 64">
  <defs>
    <style>
      .cls-1 {
        fill: #94d500;
        fill-opacity: 0;
        stroke: #b3b2b1;
        stroke-linejoin: round;
        stroke-width: 3px;
        fill-rule: evenodd;
      }
    </style>
  </defs>
  <g>
    <path class="cls-1" d="M1116.38,1994.06a30.484,30.484,0,1,1-37.33,21.55A30.488,30.488,0,0,1,1116.38,1994.06Z" transform="translate(-1076.5 -1991.5)"/>
    <path class="cls-1" d="M1114.07,2002.74a21.493,21.493,0,1,1-26.33,15.2A21.487,21.487,0,0,1,1114.07,2002.74Z" transform="translate(-1076.5 -1991.5)"/>
    <path class="cls-1" d="M1111.43,2011.39a12.5,12.5,0,1,1-15.31,8.84A12.509,12.509,0,0,1,1111.43,2011.39Z" transform="translate(-1076.5 -1991.5)"/>
  </g>
  <path class="cls-1" d="M1176.04,2011.46a12.5,12.5,0,1,1-15.31,8.84A12.5,12.5,0,0,1,1176.04,2011.46Z" transform="translate(-1076.5 -1991.5)"/>
</svg>
