<svg xmlns="http://www.w3.org/2000/svg" width="21" height="14" viewBox="0 0 21 14">
  <defs>
    <style>
      .cls-1 {
        fill: #b3b2b1;
        fill-rule: evenodd;
        opacity: 0.5;
      }
    </style>
  </defs>
  <path id="yt" class="cls-1" d="M1103.5,4598h0s-4.41,0-7.35.2a3.136,3.136,0,0,0-2.11.84,4.174,4.174,0,0,0-.83,1.98,28.533,28.533,0,0,0-.21,3.22v1.51a28.533,28.533,0,0,0,.21,3.22,4.174,4.174,0,0,0,.83,1.98,3.684,3.684,0,0,0,2.32.85c1.68,0.15,7.14.2,7.14,0.2h0s4.41-.01,7.35-0.21a3.136,3.136,0,0,0,2.11-.84,4.174,4.174,0,0,0,.83-1.98,28.533,28.533,0,0,0,.21-3.22v-1.51a28.533,28.533,0,0,0-.21-3.22,4.174,4.174,0,0,0-.83-1.98,3.136,3.136,0,0,0-2.11-.84c-2.94-.2-7.35-0.2-7.35-0.2m-2.17,9.58,5.68-2.79-5.68-2.8v5.59Z" transform="translate(-1093 -4598)"/>
</svg>
